#tb 0: 1/50
#media_type 0: video
#codec_id 0: rawvideo
#dimensions 0: 320x240
#sar 0: 1/1
0,          0,          0,        1,   307200, 0xb49cf016
0,          1,          1,        1,   307200, 0xc3be6971
0,          2,          2,        1,   307200, 0x4d458da1
0,          3,          3,        1,   307200, 0xb49ed940
0,          4,          4,        1,   307200, 0x1577849f
0,          5,          5,        1,   307200, 0xaf71e7fc
0,          6,          6,        1,   307200, 0x1290a487
0,          7,          7,        1,   307200, 0xaf0cf5ee
0,          8,          8,        1,   307200, 0x6ffb3abb
0,          9,          9,        1,   307200, 0x9e65597e
0,         10,         10,        1,   307200, 0x9f84df5d
0,         11,         11,        1,   307200, 0xf60b8c87
0,         12,         12,        1,   307200, 0xe2eac3a7
0,         13,         13,        1,   307200, 0x2c4ac771
0,         14,         14,        1,   307200, 0xf4d9003d
0,         15,         15,        1,   307200, 0xab2162fc
0,         16,         16,        1,   307200, 0xdc90848a
0,         17,         17,        1,   307200, 0x29f79f4b
0,         18,         18,        1,   307200, 0x45b1e01b
0,         19,         19,        1,   307200, 0x43baddc2
0,         20,         20,        1,   307200, 0xf2b12fe5
0,         21,         21,        1,   307200, 0x1de67e13
0,         22,         22,        1,   307200, 0xfc1f7774
0,         23,         23,        1,   307200, 0x5552e7f2
0,         24,         24,        1,   307200, 0xb1d60366
0,         25,         25,        1,   307200, 0x4693ab03
0,         26,         26,        1,   307200, 0x7295ef7a
0,         27,         27,        1,   307200, 0xf442a5df
0,         28,         28,        1,   307200, 0x01e0dbb8
0,         29,         29,        1,   307200, 0xf10c3549
0,         30,         30,        1,   307200, 0x8a512668
0,         31,         31,        1,   307200, 0x69e7b43e
0,         32,         32,        1,   307200, 0x6c5343ca
0,         33,         33,        1,   307200, 0xf323456c
0,         34,         34,        1,   307200, 0xeead5632
0,         35,         35,        1,   307200, 0x4e24d659
0,         36,         36,        1,   307200, 0x7a25b546
0,         37,         37,        1,   307200, 0x9b7e8e8f
0,         38,         38,        1,   307200, 0x9d059d4c
0,         39,         39,        1,   307200, 0x21c4a16f
0,         40,         40,        1,   307200, 0xb6505ff0
0,         41,         41,        1,   307200, 0x12562a42
0,         42,         42,        1,   307200, 0x3335e451
0,         43,         43,        1,   307200, 0x6f1274cf
0,         44,         44,        1,   307200, 0xa52e71d2
0,         45,         45,        1,   307200, 0x4fda2634
0,         46,         46,        1,   307200, 0x5b48d624
0,         47,         47,        1,   307200, 0xa9505af8
0,         48,         48,        1,   307200, 0xc2624880
0,         49,         49,        1,   307200, 0x4eb317a5
